Coordinates
version=1
nRows=13
nColumns=34
inDegrees=yes

Units are S.I. units (second, meters, Newtons, ...)
Angles are in degrees.

endheader
time	pelvis_tilt	pelvis_list	pelvis_rotation	pelvis_tx	pelvis_ty	pelvis_tz	hip_flexion_r	hip_adduction_r	hip_rotation_r	knee_angle_r	ankle_angle_r	subtalar_angle_r	mtp_angle_r	hip_flexion_l	hip_adduction_l	hip_rotation_l	knee_angle_l	socket_flexion	socket_adduction	socket_rotation	socket_tx	socket_ty	socket_tz	pros_ankle_rx	pros_ankle_ry	pros_ankle_rz	pros_ankle_tx	pros_ankle_ty	pros_ankle_tz	foot_flex	lumbar_extension	lumbar_bending	lumbar_rotation
      0.59583333	      0.10561717	     -5.64537831	      7.46997096	      0.02625478	      1.01970163	      0.36992416	     19.91357976	      4.54750258	    -12.27110800	      2.64507704	     14.05668440	      8.97075221	      5.90612370	    -16.01574725	     -9.36283714	    -11.32244187	    -13.03512876	      1.06991552	     -1.12411411	     14.36207816	      0.00000000	     -0.00973269	      0.00000000	      0.00000000	      0.00000000	      0.00000000	      0.00000000	      0.00000000	      0.00000000	     14.29080260	     -9.70154833	     -0.71178951	    -28.46644855
      0.60000000	      0.11252160	     -5.65011667	      7.68511007	      0.03242601	      1.01863283	      0.36990556	     19.98846386	      4.51776306	    -12.05967519	      2.42867504	     13.90091878	      9.02407130	      5.91069752	    -16.22784468	     -9.50006259	    -11.24419302	    -13.16228338	      1.20924802	     -1.11400807	     14.38521671	      0.00000000	     -0.00961225	      0.00000000	      0.00000000	      0.00000000	      0.00000000	      0.00000000	      0.00000000	      0.00000000	     14.33159886	     -9.67588650	     -0.68427428	    -28.46326825
      0.60416667	      0.16207849	     -5.69519687	      7.82309921	      0.03843870	      1.01753303	      0.36997160	     20.12755277	      4.53688233	    -11.79910806	      2.00255354	     13.43270404	      9.06354258	      5.92683903	    -16.50563662	     -9.66751031	    -11.08497389	    -13.28391946	      1.34780481	     -1.07139159	     14.39360952	      0.00000000	     -0.00965234	      0.00000000	      0.00000000	      0.00000000	      0.00000000	      0.00000000	      0.00000000	      0.00000000	     14.45415736	     -9.71048272	     -0.49908756	    -28.49737549
      0.60833333	      0.22265239	     -5.82918709	      8.03441044	      0.04456935	      1.01657097	      0.36993235	     20.17083877	      4.65214092	    -11.67128193	      1.74844829	     12.37821237	      8.65452967	      6.32453127	    -16.80945652	     -9.92568444	    -10.83364231	    -13.22681394	      1.64624865	     -0.99394964	     14.19004709	      0.00000000	     -0.00980499	      0.00000000	      0.00000000	      0.00000000	      0.00000000	      0.00000000	      0.00000000	      0.00000000	     14.50289565	     -9.84956530	     -0.14347275	    -28.58291244
      0.61250000	      0.26834989	     -5.92251457	      8.14799879	      0.05065542	      1.01560206	      0.37003238	     20.34628387	      4.72776900	    -11.40383594	      1.17205698	     11.85068940	      8.55523152	      6.46470936	    -17.05285839	    -10.12387649	    -10.76498900	    -13.37024939	      1.83618055	     -0.97287937	     14.09627929	      0.00000000	     -0.00985941	      0.00000000	      0.00000000	      0.00000000	      0.00000000	      0.00000000	      0.00000000	      0.00000000	     14.55086801	     -9.91937423	      0.08195110	    -28.66022986
      0.61666667	      0.31414757	     -6.04492465	      8.26344633	      0.05677727	      1.01466263	      0.37020446	     20.53566086	      4.83536453	    -11.20448535	      0.54433442	     11.19162225	      8.36754615	      6.65474930	    -17.26815041	    -10.36723002	    -10.67950352	    -13.54294267	      2.04746689	     -0.91691176	     14.01523902	      0.00000000	     -0.00999194	      0.00000000	      0.00000000	      0.00000000	      0.00000000	      0.00000000	      0.00000000	      0.00000000	     14.56413677	     -9.98298322	      0.34559463	    -28.70225747
      0.62083333	      0.31406901	     -6.18011934	      8.41321252	      0.06291419	      1.01369613	      0.37030046	     20.61751464	      4.96864189	    -10.78776414	      0.26415321	      9.68450729	      7.27379450	     11.14514944	    -17.35502148	    -10.63770621	    -10.57496405	    -13.89114266	      2.18781826	     -0.93066226	     13.98569925	      0.00000000	     -0.01013752	      0.00000000	      0.00000000	      0.00000000	      0.00000000	      0.00000000	      0.00000000	      0.00000000	     14.58031682	     -9.93966271	      0.61733987	    -28.74229854
      0.62500000	      0.38841738	     -6.34061215	      8.47196181	      0.06904617	      1.01291091	      0.37050590	     20.83736711	      5.12269331	    -10.62844116	     -0.54075537	      9.09381665	      7.21527557	     11.13221751	    -17.57231518	    -10.89911007	    -10.51489559	    -14.13439994	      2.40887405	     -0.88605604	     13.84204418	      0.00000000	     -0.01035631	      0.00000000	      0.00000000	      0.00000000	      0.00000000	      0.00000000	      0.00000000	      0.00000000	     14.52279202	    -10.00890486	      0.88255076	    -28.75512933
      0.62916667	      0.44918778	     -6.52174751	      8.52950054	      0.07515081	      1.01214667	      0.37079500	     21.11263637	      5.29585302	    -10.51768072	     -1.44489737	      8.40201792	      7.05226692	     11.15589305	    -17.74407806	    -11.18508061	    -10.44531132	    -14.40993066	      2.63135651	     -0.85335030	     13.68200664	      0.00000000	     -0.01061924	      0.00000000	      0.00000000	      0.00000000	      0.00000000	      0.00000000	      0.00000000	      0.00000000	     14.46587195	    -10.10932683	      1.22302098	    -28.72097462
      0.63333333	      0.52532874	     -6.70863228	      8.57239669	      0.08125956	      1.01147984	      0.37108755	     21.36543055	      5.48030273	    -10.38110615	     -2.36840563	      7.74810215	      6.86997537	     11.20155089	    -17.90693576	    -11.47175263	    -10.37067338	    -14.73475220	      2.86429742	     -0.82358556	     13.50476064	      0.00000000	     -0.01090876	      0.00000000	      0.00000000	      0.00000000	      0.00000000	      0.00000000	      0.00000000	      0.00000000	     14.37563417	    -10.17355380	      1.54902908	    -28.67658851
      0.63750000	      0.57936120	     -6.91831815	      8.58412946	      0.08736194	      1.01082040	      0.37141065	     21.67168787	      5.68701621	    -10.27595656	     -3.36077347	      7.06984333	      6.60654618	     11.28485204	    -18.02045337	    -11.76530643	    -10.29745022	    -15.11773537	      3.09717765	     -0.80920980	     13.28672386	      0.00000000	     -0.01128761	      0.00000000	      0.00000000	      0.00000000	      0.00000000	      0.00000000	      0.00000000	      0.00000000	     14.25133750	    -10.26575424	      1.90873069	    -28.58732322
      0.64166667	      0.57885880	     -7.14006980	      8.61439370	      0.09343209	      1.01013555	      0.37179246	     22.03551321	      5.89555995	    -10.16608444	     -4.36762164	      6.41079104	      6.17237713	     11.49092469	    -17.99468233	    -12.08495889	    -10.18617346	    -15.65169499	      3.29337000	     -0.79002596	     13.07921742	      0.00000000	     -0.01172990	      0.00000000	      0.00000000	      0.00000000	      0.00000000	      0.00000000	      0.00000000	      0.00000000	     14.10946558	    -10.31733032	      2.27792820	    -28.38058113
      0.64583333	      0.64418842	     -7.36254249	      8.52754998	      0.09951345	      1.00967211	      0.37228741	     22.33817515	      6.14798124	    -10.02955545	     -5.41607606	      5.79307289	      5.88154627	     11.61896493	    -18.06871783	    -12.35775877	    -10.14181113	    -16.16811161	      3.50531591	     -0.79554291	     12.77015609	      0.00000000	     -0.01210605	      0.00000000	      0.00000000	      0.00000000	      0.00000000	      0.00000000	      0.00000000	      0.00000000	     13.89012800	    -10.37232037	      2.63969955	    -28.29802468
